<svg xmlns="http://www.w3.org/2000/svg" width="589.93" height="501.295" viewBox="0 0 589.93 501.295">
  <g id="Group_3604" data-name="Group 3604" transform="translate(-81.133 -92.427)">
    <g id="Background_Complete" data-name="Background Complete" transform="translate(0 54.953)">
      <g id="Group_3586" data-name="Group 3586" transform="translate(83.69 41.519)">
        <g id="Group_3578" data-name="Group 3578" transform="translate(0 15.957)">
          <g id="Group_3577" data-name="Group 3577">
            <rect id="Rectangle_2017" data-name="Rectangle 2017" width="214.554" height="226.408" transform="translate(238.825 226.408) rotate(180)" fill="#e6e6e6"/>
            <rect id="Rectangle_2018" data-name="Rectangle 2018" width="219.404" height="226.408" transform="translate(234.571 226.408) rotate(180)" fill="#f0f0f0"/>
            <rect id="Rectangle_2019" data-name="Rectangle 2019" width="214.554" height="8.459" transform="translate(238.825 234.866) rotate(180)" fill="#e6e6e6"/>
            <rect id="Rectangle_2020" data-name="Rectangle 2020" width="219.404" height="8.459" transform="translate(219.404 234.866) rotate(180)" fill="#f0f0f0"/>
            <rect id="Rectangle_2021" data-name="Rectangle 2021" width="200.917" height="193.913" transform="translate(221.826 12.746) rotate(90)" fill="#fafafa"/>
            <path id="Path_6570" data-name="Path 6570" d="M186,304.434,155.233,103.517H119.92l30.764,200.917Z" transform="translate(-30.213 -90.772)" fill="#fff"/>
            <path id="Path_6571" data-name="Path 6571" d="M149.683,304.434,118.919,103.517H105.152l30.764,200.917Z" transform="translate(-36.798 -90.772)" fill="#fff"/>
            <rect id="Rectangle_2022" data-name="Rectangle 2022" width="200.917" height="1.618" transform="translate(29.531 12.746) rotate(90)" fill="#e6e6e6"/>
            <rect id="Rectangle_2023" data-name="Rectangle 2023" width="202.324" height="16.066" transform="translate(23.707 105.171)" fill="#f0f0f0"/>
          </g>
        </g>
        <g id="Group_3582" data-name="Group 3582" transform="translate(311.373)">
          <g id="Group_3579" data-name="Group 3579" transform="translate(0 133.39)">
            <rect id="Rectangle_2024" data-name="Rectangle 2024" width="24.672" height="298.558" transform="translate(24.672 298.558) rotate(180)" fill="#e6e6e6"/>
            <path id="Path_6572" data-name="Path 6572" d="M279.71,386.137h-6.487V374.016h13.29Z" transform="translate(-273.222 -87.579)" fill="#f0f0f0"/>
            <rect id="Rectangle_2025" data-name="Rectangle 2025" width="24.673" height="298.558" transform="translate(224.329 298.558) rotate(180)" fill="#e6e6e6"/>
            <rect id="Rectangle_2026" data-name="Rectangle 2026" width="205.318" height="294.327" transform="translate(205.318 294.327) rotate(180)" fill="#f0f0f0"/>
            <rect id="Rectangle_2027" data-name="Rectangle 2027" width="195.253" height="85.283" rx="3.245" transform="translate(200.285 90.103) rotate(180)" fill="#e6e6e6"/>
            <path id="Path_6573" data-name="Path 6573" d="M412.83,386.137h6.487V374.016h-13.29Z" transform="translate(-213.999 -87.579)" fill="#f0f0f0"/>
            <rect id="Rectangle_2028" data-name="Rectangle 2028" width="195.253" height="85.283" rx="3.245" transform="translate(200.285 189.169) rotate(180)" fill="#e6e6e6"/>
            <rect id="Rectangle_2029" data-name="Rectangle 2029" width="195.253" height="85.283" rx="3.245" transform="translate(200.285 288.235) rotate(180)" fill="#e6e6e6"/>
            <path id="Path_6574" data-name="Path 6574" d="M319.63,190.492h74.129c3.128,0,6.116-4.649,8.268-12.857H311.362C313.514,185.844,316.5,190.492,319.63,190.492Z" transform="translate(-256.214 -175.153)" fill="#f0f0f0"/>
            <path id="Path_6575" data-name="Path 6575" d="M319.63,259h74.129c3.128,0,6.116-4.649,8.268-12.856H311.362C313.514,254.356,316.5,259,319.63,259Z" transform="translate(-256.214 -144.6)" fill="#f0f0f0"/>
            <path id="Path_6576" data-name="Path 6576" d="M319.63,327.519h74.129c3.128,0,6.116-4.65,8.268-12.857H311.362C313.514,322.869,316.5,327.519,319.63,327.519Z" transform="translate(-256.214 -114.047)" fill="#f0f0f0"/>
          </g>
          <g id="Group_3581" data-name="Group 3581" transform="translate(19.44)">
            <path id="Path_6577" data-name="Path 6577" d="M380.479,147.338S380.807,189,393.385,189s12.906-41.662,12.906-41.662Z" transform="translate(-244.833 -55.274)" fill="#e6e6e6"/>
            <path id="Path_6578" data-name="Path 6578" d="M286.667,147.547s.817,41.36,32.146,41.36,32.145-41.36,32.145-41.36Z" transform="translate(-286.667 -55.18)" fill="#e6e6e6"/>
            <path id="Path_6579" data-name="Path 6579" d="M314.37,154.73s.612,30.973,24.072,30.973,24.073-30.973,24.073-30.973Z" transform="translate(-274.313 -51.977)" fill="#f0f0f0"/>
            <path id="Path_6580" data-name="Path 6580" d="M336.036,160.449s.448,22.7,17.646,22.7,17.646-22.7,17.646-22.7Z" transform="translate(-264.651 -49.427)" fill="#ebebeb"/>
            <g id="Group_3580" data-name="Group 3580" transform="translate(138.948)">
              <path id="Path_6581" data-name="Path 6581" d="M399.064,173.948a.994.994,0,0,1-.457-.11c-1.372-.7-13.378-7-12.562-13.168a14.7,14.7,0,0,1,2.6-5.96c1.676-2.636,2.886-4.539.79-7.393-3.211-4.373.295-7.943,3.388-11.092a22.454,22.454,0,0,0,3.811-4.6c1.274-2.377.249-4.186-1.168-6.689-1.21-2.137-2.582-4.56-2.639-7.811a17.873,17.873,0,0,1,8.59-15.609,1.007,1.007,0,0,1,.976,1.763,15.858,15.858,0,0,0-7.551,13.812c.046,2.737,1.232,4.829,2.377,6.852,1.471,2.6,2.99,5.278,1.191,8.634a23.9,23.9,0,0,1-4.15,5.061c-3.347,3.407-5.292,5.641-3.2,8.486,2.912,3.965.985,7-.716,9.668a12.985,12.985,0,0,0-2.3,5.142c-.534,4.04,8.106,9.39,11.479,11.109a1.008,1.008,0,0,1-.458,1.906Z" transform="translate(-381.316 -75.763)" fill="#e6e6e6"/>
              <path id="Path_6582" data-name="Path 6582" d="M402.9,83.667s-16.128,17.3-5.208,28.223C417.461,111.89,402.9,83.667,402.9,83.667Z" transform="translate(-377.797 -83.667)" fill="#f0f0f0"/>
              <path id="Path_6583" data-name="Path 6583" d="M384.274,87.117s1.416,23.612,16.854,23.23C414.759,96.027,384.274,87.117,384.274,87.117Z" transform="translate(-382.088 -82.129)" fill="#f0f0f0"/>
              <path id="Path_6584" data-name="Path 6584" d="M410.5,113.649s-16.67-1.066-17.747,9.788C401.6,134.236,410.5,113.649,410.5,113.649Z" transform="translate(-378.306 -70.31)" fill="#f0f0f0"/>
              <path id="Path_6585" data-name="Path 6585" d="M383.411,102.747s1.966,16.589,12.836,15.686C405.268,107.777,383.411,102.747,383.411,102.747Z" transform="translate(-382.473 -75.158)" fill="#f0f0f0"/>
              <path id="Path_6586" data-name="Path 6586" d="M382.8,123.431s9.886,4.294,7.311,10.845C381.845,137.873,382.8,123.431,382.8,123.431Z" transform="translate(-382.762 -65.935)" fill="#f0f0f0"/>
              <path id="Path_6587" data-name="Path 6587" d="M396.541,131.329s-1.848,8.076-7.16,7.055C385.5,132.651,396.541,131.329,396.541,131.329Z" transform="translate(-380.18 -62.413)" fill="#f0f0f0"/>
              <path id="Path_6588" data-name="Path 6588" d="M402.391,126.647s-8.336,6.834-12.986,1.55C389.978,119.206,402.391,126.647,402.391,126.647Z" transform="translate(-379.8 -65.79)" fill="#f0f0f0"/>
            </g>
          </g>
        </g>
        <g id="Group_3585" data-name="Group 3585" transform="translate(20.71 297.535)">
          <g id="Group_3583" data-name="Group 3583">
            <rect id="Rectangle_2030" data-name="Rectangle 2030" width="102.463" height="134.412" fill="#f5f5f5"/>
            <rect id="Rectangle_2031" data-name="Rectangle 2031" width="109.694" height="1.78" transform="translate(11.538 12.359) rotate(90)" fill="#e6e6e6"/>
            <rect id="Rectangle_2032" data-name="Rectangle 2032" width="81.32" height="2.254" transform="translate(9.759 12.359)" fill="#e6e6e6"/>
          </g>
          <g id="Group_3584" data-name="Group 3584" transform="translate(102.463)">
            <rect id="Rectangle_2033" data-name="Rectangle 2033" width="102.463" height="134.412" transform="translate(1.78)" fill="#f5f5f5"/>
            <rect id="Rectangle_2034" data-name="Rectangle 2034" width="10.215" height="134.412" transform="translate(114.458 134.412) rotate(180)" fill="#e0e0e0"/>
            <rect id="Rectangle_2035" data-name="Rectangle 2035" width="109.694" height="1.78" transform="translate(13.318 12.359) rotate(90)" fill="#e6e6e6"/>
            <rect id="Rectangle_2036" data-name="Rectangle 2036" width="132.61" height="1.78" transform="translate(1.78 1.802) rotate(90)" fill="#e6e6e6"/>
            <rect id="Rectangle_2037" data-name="Rectangle 2037" width="81.32" height="2.254" transform="translate(11.538 12.359)" fill="#e6e6e6"/>
          </g>
          <path id="Path_6589" data-name="Path 6589" d="M139.99,298.767h0a1.918,1.918,0,0,1,1.919,1.917v31.225a1.919,1.919,0,0,1-1.919,1.919h0a1.918,1.918,0,0,1-1.917-1.919V300.684A1.918,1.918,0,0,1,139.99,298.767Z" transform="translate(-42.828 -285.281)" fill="#e0e0e0"/>
          <path id="Path_6590" data-name="Path 6590" d="M148.552,298.767h0a1.918,1.918,0,0,1,1.919,1.917v31.225a1.919,1.919,0,0,1-1.919,1.919h0a1.918,1.918,0,0,1-1.917-1.919V300.684A1.918,1.918,0,0,1,148.552,298.767Z" transform="translate(-39.01 -285.281)" fill="#e0e0e0"/>
        </g>
        <rect id="Rectangle_2038" data-name="Rectangle 2038" width="223.398" height="6.377" transform="translate(17.526 292.961)" fill="#ebebeb"/>
        <rect id="Rectangle_2039" data-name="Rectangle 2039" width="17.833" height="6.377" transform="translate(223.09 292.961)" fill="#e0e0e0"/>
      </g>
    </g>
    <g id="Shadow" transform="translate(81.133 560.976)">
      <ellipse id="_Path_" data-name="&lt;Path&gt;" cx="280.352" cy="16.373" rx="280.352" ry="16.373" fill="#f5f5f5"/>
    </g>
    <g id="Application" transform="translate(261.645 92.427)">
      <g id="Group_3593" data-name="Group 3593">
        <g id="Group_3588" data-name="Group 3588" transform="translate(110.846)">
          <g id="Group_3587" data-name="Group 3587">
            <rect id="Rectangle_2040" data-name="Rectangle 2040" width="1.446" height="30.327" transform="translate(243.108 35.818) rotate(-69.922)" fill="#407bff"/>
            <rect id="Rectangle_2041" data-name="Rectangle 2041" width="1.446" height="9.677" transform="translate(226.787 29.853) rotate(-69.923)" fill="#407bff"/>
            <path id="Path_6591" data-name="Path 6591" d="M394.921,81.866l150.45,54.991a16.52,16.52,0,0,1,9.816,21.125L440,473.126a16.521,16.521,0,0,1-21.127,9.816l-150.45-54.991a16.52,16.52,0,0,1-9.818-21.125L373.795,91.683A16.521,16.521,0,0,1,394.921,81.866Z" transform="translate(-257.612 -80.87)" fill="#407bff"/>
            <path id="Path_6592" data-name="Path 6592" d="M433.427,469.42,548.473,154.662a11.188,11.188,0,0,0-6.667-14.347L389.34,84.587a11.189,11.189,0,0,0-14.348,6.667L259.948,406.012a11.188,11.188,0,0,0,6.667,14.348L419.08,476.087A11.185,11.185,0,0,0,433.427,469.42Z" transform="translate(-256.875 -79.516)" fill="#fff"/>
            <path id="Path_6593" data-name="Path 6593" d="M423.8,110.1h0a16.44,16.44,0,0,1-18.83,5.62l-3.031-1.108a16.44,16.44,0,0,1-10.768-16.439h0Z" transform="translate(-198.068 -73.154)" fill="#407bff"/>
            <path id="Path_6594" data-name="Path 6594" d="M377.21,446.439h0a2.754,2.754,0,0,0,3.521-1.637l113-309.168a2.752,2.752,0,0,0-1.635-3.521h0a2.752,2.752,0,0,0-3.521,1.635l-113,309.169A2.754,2.754,0,0,0,377.21,446.439Z" transform="translate(-205.082 -58.093)" fill="#263238" opacity="0.1"/>
            <path id="Path_6595" data-name="Path 6595" d="M263.327,404.814h0a2.752,2.752,0,0,0,3.521-1.635l113-309.169a2.754,2.754,0,0,0-1.637-3.521h0a2.754,2.754,0,0,0-3.521,1.637l-113,309.168A2.754,2.754,0,0,0,263.327,404.814Z" transform="translate(-255.867 -76.655)" fill="#263238" opacity="0.1"/>
          </g>
        </g>
        <g id="Group_3590" data-name="Group 3590" transform="translate(108.775 23.841)" opacity="0.9">
          <g id="Group_3589" data-name="Group 3589">
            <rect id="Rectangle_2042" data-name="Rectangle 2042" width="331.425" height="171.234" rx="9.348" transform="matrix(-0.153, 0.988, -0.988, -0.153, 219.843, 26.153)" fill="#fff"/>
            <path id="Path_6596" data-name="Path 6596" d="M413.754,449.5a14.193,14.193,0,0,1-2.183-.168L269.064,427.31a14.257,14.257,0,0,1-11.9-16.248l46.49-300.82a14.242,14.242,0,0,1,16.248-11.9l142.509,22.025a14.239,14.239,0,0,1,11.9,16.247l-46.49,300.822A14.262,14.262,0,0,1,413.754,449.5ZM317.7,99.62a12.8,12.8,0,0,0-12.617,10.842L258.595,411.283a12.793,12.793,0,0,0,10.688,14.6L411.792,447.9a12.81,12.81,0,0,0,14.6-10.69l.716.111-.716-.111,46.491-300.82a12.8,12.8,0,0,0-10.69-14.6L319.681,99.773A12.917,12.917,0,0,0,317.7,99.62Z" transform="translate(-255.815 -96.994)" fill="#407bff"/>
          </g>
          <path id="Path_6597" data-name="Path 6597" d="M427.561,229.828a14.059,14.059,0,0,1-2.139-.165L295.666,209.609a13.817,13.817,0,0,1-11.544-15.764l9.506-61.509a13.815,13.815,0,0,1,15.764-11.544l129.757,20.052a13.834,13.834,0,0,1,11.544,15.765l-9.507,61.509a13.824,13.824,0,0,1-13.625,11.709ZM307.256,122.074a12.377,12.377,0,0,0-12.2,10.483l-9.506,61.509a12.371,12.371,0,0,0,10.336,14.115l129.756,20.052A12.369,12.369,0,0,0,439.757,217.9l9.506-61.509a12.383,12.383,0,0,0-10.336-14.114L309.171,122.221A12.629,12.629,0,0,0,307.256,122.074Z" transform="translate(-243.793 -86.981)" fill="#407bff"/>
          <path id="Path_6598" data-name="Path 6598" d="M414.606,277.237a17.187,17.187,0,0,1-2.621-.2L288.73,257.986a17.106,17.106,0,0,1,5.224-33.81l123.255,19.049a17.107,17.107,0,0,1-2.6,34.013ZM291.333,225.42a15.66,15.66,0,0,0-2.381,31.137L412.2,275.606a15.682,15.682,0,0,0,17.869-13.084h0a15.663,15.663,0,0,0-13.084-17.869L293.734,225.605A15.748,15.748,0,0,0,291.333,225.42Z" transform="translate(-248.128 -40.895)" fill="#407bff"/>
          <path id="Path_6599" data-name="Path 6599" d="M410.279,305.25a17.176,17.176,0,0,1-2.623-.2L284.4,286a17.106,17.106,0,0,1,5.224-33.81L412.88,271.239a17.106,17.106,0,0,1-2.6,34.011Zm-123.3-51.818a15.662,15.662,0,0,0-2.357,31.14l123.253,19.047a15.66,15.66,0,1,0,4.785-30.952L289.406,253.62A15.809,15.809,0,0,0,286.98,253.432Z" transform="translate(-250.058 -28.404)" fill="#407bff"/>
          <path id="Path_6600" data-name="Path 6600" d="M405.975,333.266a17.259,17.259,0,0,1-2.649-.205L280.072,314.014A17.106,17.106,0,0,1,285.3,280.2l123.255,19.049a17.1,17.1,0,0,1,14.292,19.517l-.714-.111.714.111a17.111,17.111,0,0,1-16.868,14.5Zm-123.3-51.818a15.66,15.66,0,0,0-2.383,31.137l123.255,19.047a15.658,15.658,0,0,0,17.867-13.083h0a15.658,15.658,0,0,0-13.084-17.869L285.077,281.632A15.762,15.762,0,0,0,282.675,281.448Z" transform="translate(-251.989 -15.911)" fill="#407bff"/>
          <path id="Path_6601" data-name="Path 6601" d="M398.62,223.42a5.9,5.9,0,0,1-.924-.072l-61.659-9.529a6.027,6.027,0,1,1,1.841-11.912l61.659,9.529a6.027,6.027,0,0,1,5.036,6.875h0A6.038,6.038,0,0,1,398.62,223.42Zm-61.665-20.139a4.581,4.581,0,0,0-.7,9.109l61.658,9.529a4.583,4.583,0,0,0,5.228-3.827h0a4.581,4.581,0,0,0-3.827-5.227l-61.659-9.529A4.663,4.663,0,0,0,336.955,203.281Z" transform="translate(-222.846 -50.768)" fill="#263238"/>
          <path id="Path_6602" data-name="Path 6602" d="M404.76,236.713a6.08,6.08,0,0,1-.924-.071L316.228,223.1a6.026,6.026,0,1,1,1.839-11.912l87.609,13.538a6.036,6.036,0,0,1,5.036,6.877h0A6.037,6.037,0,0,1,404.76,236.713Zm-87.622-24.149a4.582,4.582,0,0,0-.69,9.109l87.608,13.54a4.582,4.582,0,0,0,1.4-9.056L317.848,212.62A4.713,4.713,0,0,0,317.138,212.565Z" transform="translate(-231.68 -46.628)" fill="#263238"/>
          <circle id="Ellipse_259" data-name="Ellipse 259" cx="19.766" cy="19.766" r="19.766" transform="translate(48.162 82.113) rotate(-47.482)" fill="#407bff"/>
        </g>
        <g id="Group_3592" data-name="Group 3592" transform="translate(0 49.491)" opacity="0.9">
          <g id="Group_3591" data-name="Group 3591">
            <path id="Path_6603" data-name="Path 6603" d="M352.128,437.13l8.17-304.283a13.516,13.516,0,0,0-13.149-13.874L203,115.1a13.518,13.518,0,0,0-13.875,13.149l-8.168,304.282A13.517,13.517,0,0,0,194.1,446.409l144.149,3.869A13.517,13.517,0,0,0,352.128,437.13Z" transform="translate(-180.952 -115.098)" fill="#407bff"/>
            <path id="Path_6604" data-name="Path 6604" d="M352.128,437.13l8.17-304.283a13.516,13.516,0,0,0-13.149-13.874L203,115.1a13.518,13.518,0,0,0-13.875,13.149l-8.168,304.282A13.517,13.517,0,0,0,194.1,446.409l144.149,3.869A13.517,13.517,0,0,0,352.128,437.13Z" transform="translate(-180.952 -115.098)" opacity="0.1"/>
          </g>
          <rect id="Rectangle_2043" data-name="Rectangle 2043" width="88.425" height="157.483" rx="9.055" transform="matrix(-0.027, 1, -1, -0.027, 168.243, 175.13)" fill="#263238" opacity="0.2"/>
          <path id="Path_6605" data-name="Path 6605" d="M263.8,327.711A16.968,16.968,0,1,0,281.218,311.2,16.968,16.968,0,0,0,263.8,327.711Z" transform="translate(-144.009 -27.649)" fill="#fff"/>
          <circle id="Ellipse_260" data-name="Ellipse 260" cx="16.968" cy="16.968" r="16.968" transform="matrix(0.726, -0.688, 0.688, 0.726, 11.546, 297.155)" fill="#fff"/>
          <path id="Path_6606" data-name="Path 6606" d="M228.8,326.771a16.968,16.968,0,1,0,17.416-16.507A16.968,16.968,0,0,0,228.8,326.771Z" transform="translate(-159.617 -28.068)" fill="#fff"/>
          <path id="Path_6607" data-name="Path 6607" d="M348.141,157.467h0A16.383,16.383,0,0,0,332.2,140.65L207.531,137.3a16.382,16.382,0,0,0-16.816,15.937h0a16.383,16.383,0,0,0,15.937,16.816L331.325,173.4A16.383,16.383,0,0,0,348.141,157.467Z" transform="translate(-176.6 -105.198)" fill="#fff"/>
          <path id="Path_6608" data-name="Path 6608" d="M347.323,187.928h0a16.383,16.383,0,0,0-15.937-16.816l-124.672-3.347A16.383,16.383,0,0,0,189.9,183.7h0a16.384,16.384,0,0,0,15.937,16.816l124.673,3.347A16.383,16.383,0,0,0,347.323,187.928Z" transform="translate(-176.965 -91.614)" fill="#fff"/>
          <path id="Path_6609" data-name="Path 6609" d="M346.505,218.389h0a16.382,16.382,0,0,0-15.937-16.816L205.9,198.227a16.381,16.381,0,0,0-16.816,15.937h0a16.382,16.382,0,0,0,15.937,16.816l124.672,3.346A16.381,16.381,0,0,0,346.505,218.389Z" transform="translate(-177.329 -78.03)" fill="#fff"/>
        </g>
      </g>
    </g>
    <g id="Character" transform="translate(105.041 131.534)">
      <g id="Group_3603" data-name="Group 3603" transform="translate(0 0)">
        <path id="Path_6610" data-name="Path 6610" d="M127.427,167.513l-1.718,1.946-1.8,2.1-3.551,4.287c-2.316,2.9-4.6,5.824-6.7,8.829a93.611,93.611,0,0,0-10.568,18.323,45.323,45.323,0,0,0-1.589,4.552,24.3,24.3,0,0,0-.84,4.173,56.848,56.848,0,0,0-.078,10.192,192.113,192.113,0,0,0,3.287,22.239l-9.378,3.806a94.236,94.236,0,0,1-9.608-23.387,59.967,59.967,0,0,1-1.968-13.436,36.59,36.59,0,0,1,.565-7.6,63.116,63.116,0,0,1,1.713-6.844,97.239,97.239,0,0,1,11.637-23.508c2.355-3.537,4.812-6.959,7.442-10.234,1.309-1.645,2.646-3.262,4.037-4.844.694-.792,1.39-1.588,2.117-2.364.745-.8,1.413-1.51,2.3-2.419Z" transform="translate(-68.075 -87.668)" fill="#263238"/>
        <path id="Path_6611" data-name="Path 6611" d="M102.071,216.752l3.911,3.532-13.722,7.2a15.311,15.311,0,0,1-1.486-3.652,7.09,7.09,0,0,1,5.351-8.58h0A6.634,6.634,0,0,1,102.071,216.752Z" transform="translate(-64.661 -60.129)" fill="#ffb573"/>
        <path id="Path_6612" data-name="Path 6612" d="M110.711,227.58l-11.6,5.43-7.378-7.133,13.722-7.2Z" transform="translate(-64.133 -58.522)" fill="#ffb573"/>
        <path id="Path_6613" data-name="Path 6613" d="M139.5,127.044c-.059.962.4,1.752,1.031,1.765s1.186-.756,1.245-1.718-.4-1.752-1.031-1.765S139.562,126.082,139.5,127.044Z" transform="translate(-42.833 -100.152)" fill="#263238"/>
        <path id="Path_6614" data-name="Path 6614" d="M139.89,127.725s1.845,5.594,4.086,8.323c-1.8,1.553-4.644.766-4.644.766Z" transform="translate(-42.907 -99.082)" fill="#ff5652"/>
        <path id="Path_6615" data-name="Path 6615" d="M137.448,123.416a.578.578,0,0,0,.424-.091,4.523,4.523,0,0,1,4.059-.652.588.588,0,0,0,.748-.312.546.546,0,0,0-.278-.735,5.671,5.671,0,0,0-5.132.768.577.577,0,0,0-.176.787A.528.528,0,0,0,137.448,123.416Z" transform="translate(-43.945 -101.935)" fill="#263238"/>
        <path id="Path_6616" data-name="Path 6616" d="M121.785,129.052c1.151,8.872,1.547,26.8-4.931,31.812,0,0,2.105,7.237,18.317,9.258,17.828,2.222,9.088-7.721,9.088-7.721-9.581-3.519-8.868-10.651-6.738-17.168Z" transform="translate(-52.931 -98.49)" fill="#ffb573"/>
        <path id="Path_6617" data-name="Path 6617" d="M92.056,400.1q.061-.017.117-.039a1.208,1.208,0,0,0,.727-1.155,1.256,1.256,0,0,0-.382-1.021c-1.23-1.246-5.229-1-5.4-.992a.3.3,0,0,0-.254.184.279.279,0,0,0,.055.3C87.757,398.232,90.586,400.5,92.056,400.1Zm-4.237-2.668c1.345-.016,3.557.116,4.29.857a.732.732,0,0,1,.228.6c-.042.529-.275.62-.351.651C91.186,399.853,89.145,398.606,87.819,397.432Z" transform="translate(-66.313 20.939)" fill="#407bff"/>
        <path id="Path_6618" data-name="Path 6618" d="M89.135,398.1c1.433-.388,2.984-1.1,3.32-1.923a.9.9,0,0,0-.347-1.1,1.5,1.5,0,0,0-1.206-.307c-1.774.252-3.908,3.065-4,3.185a.284.284,0,0,0-.035.288.268.268,0,0,0,.236.159A7.5,7.5,0,0,0,89.135,398.1Zm1.627-2.727c.068-.017.134-.032.2-.042a.965.965,0,0,1,.782.194c.282.227.217.388.189.457-.308.752-2.663,1.663-4.2,1.833A7.924,7.924,0,0,1,90.762,395.37Z" transform="translate(-66.313 19.995)" fill="#407bff"/>
        <path id="Path_6619" data-name="Path 6619" d="M141.987,409.125c1.53,0,3.016-.211,3.54-.9a1.076,1.076,0,0,0,.027-1.235,1.334,1.334,0,0,0-.87-.661c-1.964-.541-6.228,1.835-6.408,1.938a.3.3,0,0,0-.15.291.267.267,0,0,0,.215.23A20.511,20.511,0,0,0,141.987,409.125Zm1.984-2.315a2.044,2.044,0,0,1,.544.065.808.808,0,0,1,.538.4c.185.35.106.523.029.625-.587.769-3.6.787-5.808.474A13.261,13.261,0,0,1,143.97,406.81Z" transform="translate(-43.446 25.123)" fill="#407bff"/>
        <path id="Path_6620" data-name="Path 6620" d="M138.395,409.674a.273.273,0,0,0,.116-.025c1.466-.646,4.423-3.226,4.26-4.575-.039-.317-.247-.71-1.019-.789a2.158,2.158,0,0,0-1.588.486c-1.567,1.245-2.019,4.459-2.037,4.594a.27.27,0,0,0,.106.257A.278.278,0,0,0,138.395,409.674Zm3.106-4.835a1.671,1.671,0,0,1,.169.009c.506.052.531.252.539.318.1.81-1.923,2.836-3.428,3.719.192-.938.7-2.86,1.724-3.678A1.566,1.566,0,0,1,141.5,404.839Z" transform="translate(-43.446 24.243)" fill="#407bff"/>
        <path id="Path_6621" data-name="Path 6621" d="M129.247,416.334h11.929l2.309-27.626H131.555Z" transform="translate(-47.405 17.301)" fill="#ffb573"/>
        <path id="Path_6622" data-name="Path 6622" d="M77.76,405.111,89.1,407.322l10.474-27.01L88.234,378.1Z" transform="translate(-70.364 12.571)" fill="#ffb573"/>
        <path id="Path_6623" data-name="Path 6623" d="M93.472,398.114,82.253,391.23a1.053,1.053,0,0,0-1.3.176l-7.789,7.888a1.733,1.733,0,0,0,.3,2.717c3.96,2.335,6.014,3.266,10.949,6.294,3.035,1.862,9.277,6.87,13.8,8.851,4.419,1.938,7.251-2.306,5.6-3.53-7.422-5.484-8.1-10.107-9.115-13.888A2.73,2.73,0,0,0,93.472,398.114Z" transform="translate(-72.645 18.359)" fill="#263238"/>
        <path id="Path_6624" data-name="Path 6624" d="M142.7,406.859H129.672a1.1,1.1,0,0,0-1.048.814l-2.786,10.6a1.661,1.661,0,0,0,1.63,2.121c4.7-.079,11.505-.356,17.412-.356,6.906,0,8.023.377,16.122.377,4.9,0,6.458-4.951,4.426-5.4-9.25-2.042-12.029-2.261-19.892-7.233A5.324,5.324,0,0,0,142.7,406.859Z" transform="translate(-48.952 25.395)" fill="#263238"/>
        <path id="Path_6625" data-name="Path 6625" d="M171.429,192.775c-.165,4.06-.444,8.525-.87,13.446-1.128,13.381-3.265,30.057-6.9,50.777h-63.8c-.039-9.056,6.881-50.612,1.926-93.314a11.113,11.113,0,0,1,9.6-12.163c3.235-.409,6.862-.778,10.422-.949,8.167-.39,19.983-.649,27.117,0a110.772,110.772,0,0,1,11.793,1.807,11.7,11.7,0,0,1,9.118,9.121C171.051,167.226,172.081,176.9,171.429,192.775Z" transform="translate(-60.51 -89.07)" fill="#263238"/>
        <path id="Path_6626" data-name="Path 6626" d="M140.467,253.742l-.03,0a.179.179,0,0,1-.147-.208c3.346-19.081,5.667-36.159,6.9-50.761.4-4.652.7-9.172.87-13.439.675-16.435-.49-26.054-1.585-31.229a.18.18,0,0,1,.353-.075c1.578,7.451,2.128,18.281,1.593,31.319-.174,4.273-.468,8.8-.872,13.454-1.231,14.614-3.553,31.7-6.9,50.793A.18.18,0,0,1,140.467,253.742Z" transform="translate(-42.482 -85.633)" opacity="0.3"/>
        <path id="Path_6627" data-name="Path 6627" d="M141.539,172.92c-.162,9.008,4.482,29.237,8.851,38.476.672-5.538,1.2-10.628,1.589-15.312.337-4.005.587-7.692.755-11.1Z" transform="translate(-41.925 -78.928)" opacity="0.2"/>
        <path id="Path_6628" data-name="Path 6628" d="M177.665,190.118l10.654-6.338,1.939,14.571s-8.446,2.367-13.181-.482Z" transform="translate(-26.075 -74.085)" fill="#ffb573"/>
        <path id="Path_6629" data-name="Path 6629" d="M198.865,184.826l-3.512,11.629-8.562,1.9-1.939-14.572Z" transform="translate(-22.608 -74.085)" fill="#ffb573"/>
        <path id="Path_6630" data-name="Path 6630" d="M153.148,157.9c.561,1.271.912,2.195,1.284,3.154.364.94.687,1.844,1.006,2.737l1.849,5.255c1.216,3.451,2.387,6.857,3.631,10.19s2.49,6.612,3.868,9.725a68.406,68.406,0,0,0,4.32,8.609,26.71,26.71,0,0,0,2.16,3.076c.309.369.581.638.7.763.056.058.087.1.039.094s.01.03.093.075l.208.137a10.749,10.749,0,0,0,2.969.963,30.66,30.66,0,0,0,4.264.419c6.19.182,13.466-.9,20.331-1.987l.346-.055a5.125,5.125,0,0,1,3.525,9.406c-1.823,1.142-3.48,2.089-5.286,2.995-1.777.911-3.6,1.728-5.474,2.49a59.282,59.282,0,0,1-12,3.524,37.786,37.786,0,0,1-6.875.61,26.473,26.473,0,0,1-7.951-1.129l-1.089-.377a9.973,9.973,0,0,1-1.183-.482,19.117,19.117,0,0,1-2.367-1.31,24.881,24.881,0,0,1-3.558-2.822,38.393,38.393,0,0,1-4.815-5.607c-5.142-7.357-8.272-14.511-11.267-21.722q-2.169-5.4-4.047-10.755L136,170.6l-.862-2.517c-.269-.787-.562-1.606-.735-2.045l-.113-.288a10.214,10.214,0,0,1,18.855-7.849Z" transform="translate(-45.469 -88.342)" fill="#263238"/>
        <g id="Group_3594" data-name="Group 3594" transform="translate(12.46 390.679)">
          <path id="Path_6631" data-name="Path 6631" d="M143.138,388.714l-1.188,14.24H130.016l1.188-14.24Z" transform="translate(-59.521 -373.376)" opacity="0.2"/>
          <path id="Path_6632" data-name="Path 6632" d="M86.667,378.106l11.349,2.212-5.4,13.921-11.349-2.212Z" transform="translate(-81.262 -378.106)" opacity="0.2"/>
        </g>
        <path id="Path_6633" data-name="Path 6633" d="M117.422,129.889c0,11.831-.6,18.778,4.986,24.967,8.408,9.309,23.311,4.2,26.853-7.532,3.187-10.561,2.653-28.132-8.612-33.076C129.548,109.379,117.423,118.06,117.422,129.889Z" transform="translate(-52.686 -105.707)" fill="#ffb573"/>
        <path id="Path_6634" data-name="Path 6634" d="M147.159,135.569c1.017-2.772,5.055-14.7-2.445-18.436s-17.395-4.88-23.466-2.23-10.563,12.351-10.563,12.351,2.847,20.424,14.808,24.1S150.92,140.871,147.159,135.569Z" transform="translate(-55.682 -105.443)" fill="#263238"/>
        <path id="Path_6635" data-name="Path 6635" d="M144.155,120.038a12.039,12.039,0,0,0,3.566-1.839c4.312-4.216-3.344-7.037-10.949-7.721-8.6-.771-20.934,2.652-25.83,9C115.585,121.86,137.531,121.965,144.155,120.038Z" transform="translate(-55.567 -106.821)" fill="#263238"/>
        <path id="Path_6636" data-name="Path 6636" d="M141.649,119.949a10.059,10.059,0,0,0,3.359-.6c5.82-2.847-.875-6.7-6.842-9.241-6.747-2.867-17.606-3.229-23.212.765C118.087,114.053,135.8,119.829,141.649,119.949Z" transform="translate(-53.778 -107.916)" fill="#263238"/>
        <path id="Path_6637" data-name="Path 6637" d="M132.318,128.957a11.521,11.521,0,0,0,2.51,7.16c2.149,2.627,4.682,1.1,5.307-2.011.562-2.8.121-7.539-2.623-9.03C134.809,123.607,132.344,125.786,132.318,128.957Z" transform="translate(-46.035 -100.472)" fill="#ffb573"/>
        <g id="Group_3597" data-name="Group 3597" transform="translate(8.992 167.929)">
          <g id="Group_3595" data-name="Group 3595">
            <path id="Path_6638" data-name="Path 6638" d="M150.395,224.054s1.966,90.267-10.052,123.553c-19.039,52.722-39.7,113.912-39.7,113.912l-21.774-4.848s17.487-66.585,27.081-110.995c8.619-39.9,1.956-89.035,3.279-121.622Z" transform="translate(-78.864 -224.054)" fill="#407bff"/>
          </g>
          <g id="Group_3596" data-name="Group 3596" opacity="0.3">
            <path id="Path_6639" data-name="Path 6639" d="M150.395,224.054s1.966,90.267-10.052,123.553c-19.039,52.722-39.7,113.912-39.7,113.912l-21.774-4.848s17.487-66.585,27.081-110.995c8.619-39.9,1.956-89.035,3.279-121.622Z" transform="translate(-78.864 -224.054)" fill="#fff"/>
          </g>
        </g>
        <path id="Path_6640" data-name="Path 6640" d="M132.434,238.233c-5.949-1.76-10.67-1.1-12.107,4.261-3.748,13.987,4.3,50.87,8.368,67.744C131.605,286.061,132.331,257.144,132.434,238.233Z" transform="translate(-51.814 -50.19)" opacity="0.2"/>
        <g id="Group_3598" data-name="Group 3598" transform="translate(7.453 392.388)">
          <path id="Path_6641" data-name="Path 6641" d="M106.985,385.679c.09.02-5.393,7.074-5.393,7.074l-23.791-5.3,2.72-8.167Z" transform="translate(-77.8 -379.288)" fill="#407bff"/>
        </g>
        <g id="Group_3601" data-name="Group 3601" transform="translate(61.215 167.929)">
          <g id="Group_3599" data-name="Group 3599">
            <path id="Path_6642" data-name="Path 6642" d="M156.923,224.054s13.251,75.844,13.039,112.224c-.236,40.8-16.75,137.347-16.75,137.347H133s2.546-97.053,3.155-134.215c.664-40.512-21.177-115.356-21.177-115.356Z" transform="translate(-114.981 -224.054)" fill="#407bff"/>
          </g>
          <g id="Group_3600" data-name="Group 3600" opacity="0.3">
            <path id="Path_6643" data-name="Path 6643" d="M156.923,224.054s13.251,75.844,13.039,112.224c-.236,40.8-16.75,137.347-16.75,137.347H133s2.546-97.053,3.155-134.215c.664-40.512-21.177-115.356-21.177-115.356Z" transform="translate(-114.981 -224.054)" fill="#fff"/>
          </g>
        </g>
        <g id="Group_3602" data-name="Group 3602" transform="translate(77.237 409.45)">
          <path id="Path_6644" data-name="Path 6644" d="M152.487,391.088c.093,0-1.481,8.389-1.481,8.389H126.423l-.361-7.487Z" transform="translate(-126.062 -391.088)" fill="#407bff"/>
        </g>
        <path id="Path_6645" data-name="Path 6645" d="M131.511,247.867a.361.361,0,0,1-.184-.049l-8.414-4.971a.356.356,0,0,1-.175-.265l-1.729-13.466a.363.363,0,0,1,.359-.408h16.147a.361.361,0,0,1,.359.32l1.54,13.133a.364.364,0,0,1-.152.338l-7.542,5.3A.365.365,0,0,1,131.511,247.867Zm-8.078-5.552,8.061,4.761,7.176-5.043-1.478-12.6H121.778Z" transform="translate(-51.079 -54.05)" fill="#fff"/>
      </g>
    </g>
  </g>
</svg>
